<mxfile host="app.diagrams.net" modified="2023-03-09T07:56:38.877Z" agent="5.0 (Windows)" etag="Z-BYShFQjvgvSBWQO6gs" version="21.0.2" type="github">
  <diagram name="Page-1" id="0uLySRd697FRzdPYSLR3">
    <mxGraphModel dx="1747" dy="2068" grid="1" gridSize="10" guides="1" tooltips="1" connect="1" arrows="1" fold="1" page="1" pageScale="1" pageWidth="850" pageHeight="1100" math="0" shadow="0">
      <root>
        <mxCell id="0" />
        <mxCell id="1" parent="0" />
        <mxCell id="U8ta5b5KrhjTRB8xtLqo-1" value="Main application database server" style="aspect=fixed;perimeter=ellipsePerimeter;html=1;align=center;shadow=0;dashed=0;spacingTop=3;image;image=img/lib/active_directory/database_server.svg;" parent="1" vertex="1">
          <mxGeometry x="90" y="150" width="73.8" height="90" as="geometry" />
        </mxCell>
        <mxCell id="U8ta5b5KrhjTRB8xtLqo-2" value="Symmetric key database server" style="aspect=fixed;perimeter=ellipsePerimeter;html=1;align=center;shadow=0;dashed=0;spacingTop=3;image;image=img/lib/active_directory/database_server.svg;imageBackground=#E6FFCC;" parent="1" vertex="1">
          <mxGeometry x="640" y="150" width="73.8" height="90" as="geometry" />
        </mxCell>
        <mxCell id="U8ta5b5KrhjTRB8xtLqo-3" value="Peerbrain main API" style="sketch=0;points=[[0,0,0],[0.25,0,0],[0.5,0,0],[0.75,0,0],[1,0,0],[0,1,0],[0.25,1,0],[0.5,1,0],[0.75,1,0],[1,1,0],[0,0.25,0],[0,0.5,0],[0,0.75,0],[1,0.25,0],[1,0.5,0],[1,0.75,0]];outlineConnect=0;fontColor=#232F3E;gradientColor=#945DF2;gradientDirection=north;fillColor=#5A30B5;strokeColor=#ffffff;dashed=0;verticalLabelPosition=bottom;verticalAlign=top;align=center;html=1;fontSize=12;fontStyle=0;aspect=fixed;shape=mxgraph.aws4.resourceIcon;resIcon=mxgraph.aws4.api_gateway;" parent="1" vertex="1">
          <mxGeometry x="90" y="660" width="78" height="78" as="geometry" />
        </mxCell>
        <mxCell id="U8ta5b5KrhjTRB8xtLqo-4" value="Symmetric key API" style="sketch=0;points=[[0,0,0],[0.25,0,0],[0.5,0,0],[0.75,0,0],[1,0,0],[0,1,0],[0.25,1,0],[0.5,1,0],[0.75,1,0],[1,1,0],[0,0.25,0],[0,0.5,0],[0,0.75,0],[1,0.25,0],[1,0.5,0],[1,0.75,0]];outlineConnect=0;gradientDirection=north;fillColor=#60a917;strokeColor=#2D7600;dashed=0;verticalLabelPosition=bottom;verticalAlign=top;align=center;html=1;fontSize=12;fontStyle=0;aspect=fixed;shape=mxgraph.aws4.resourceIcon;resIcon=mxgraph.aws4.api_gateway;fontColor=#33001A;" parent="1" vertex="1">
          <mxGeometry x="650" y="660" width="78" height="78" as="geometry" />
        </mxCell>
        <mxCell id="U8ta5b5KrhjTRB8xtLqo-5" value="&lt;div align=&quot;left&quot;&gt;&lt;font style=&quot;font-size: 13px;&quot;&gt;DATABASE OBJECT STRUCTURE:&lt;/font&gt;&lt;/div&gt;&lt;div align=&quot;left&quot;&gt;&lt;font style=&quot;font-size: 13px;&quot;&gt;&lt;br&gt;&lt;/font&gt;&lt;/div&gt;&lt;div align=&quot;left&quot;&gt;&lt;font style=&quot;font-size: 13px;&quot;&gt;{&lt;/font&gt;&lt;br&gt;&lt;font style=&quot;font-size: 13px;&quot;&gt;&amp;nbsp;&amp;nbsp; &amp;nbsp;&quot;key&quot;: &amp;lt;username&amp;gt;,&lt;/font&gt;&lt;br&gt;&lt;font style=&quot;font-size: 13px;&quot;&gt;&amp;nbsp;&amp;nbsp; &amp;nbsp;&quot;hashed_pw&quot;: &amp;lt;user password hash&amp;gt;,&lt;/font&gt;&lt;br&gt;&lt;font style=&quot;font-size: 13px;&quot;&gt;&amp;nbsp;&amp;nbsp; &amp;nbsp;&quot;key_store&quot;: {&lt;/font&gt;&lt;br&gt;&lt;font style=&quot;font-size: 13px;&quot;&gt;&amp;nbsp;&amp;nbsp; &amp;nbsp;&amp;nbsp;&amp;nbsp; &amp;nbsp;&quot;public_key&quot;:&amp;lt;user public key&amp;gt;,&lt;/font&gt;&lt;br&gt;&lt;font style=&quot;font-size: 13px;&quot;&gt;&amp;nbsp;&amp;nbsp; &amp;nbsp;&amp;nbsp;&amp;nbsp; &amp;nbsp;&quot;symmetric_key&quot;: &amp;lt;user symmetric key&amp;gt;&lt;/font&gt;&lt;br&gt;&lt;font style=&quot;font-size: 13px;&quot;&gt;&amp;nbsp;&amp;nbsp; &amp;nbsp;&amp;nbsp;&amp;nbsp; &amp;nbsp;&amp;nbsp;&amp;nbsp; &amp;nbsp;&amp;nbsp;&amp;nbsp; &amp;nbsp;},&lt;/font&gt;&lt;br&gt;&lt;font style=&quot;font-size: 13px;&quot;&gt;&amp;nbsp;&amp;nbsp; &amp;nbsp;&quot;friends&quot;: {&lt;/font&gt;&lt;br&gt;&lt;font style=&quot;font-size: 13px;&quot;&gt;&amp;nbsp;&amp;nbsp; &amp;nbsp;&amp;nbsp;&amp;nbsp; &amp;nbsp;&amp;lt;friend A username&amp;gt;: &amp;lt;friend A&#39;s encrypted symmetric key&amp;gt;,&lt;/font&gt;&lt;br&gt;&lt;font style=&quot;font-size: 13px;&quot;&gt;&amp;nbsp;&amp;nbsp; &amp;nbsp;&amp;nbsp;&amp;nbsp; &amp;nbsp;&amp;lt;friend B username&amp;gt;: &amp;lt;friend B&#39;s encrypted symmetric key&amp;gt;&lt;/font&gt;&lt;br&gt;&lt;font style=&quot;font-size: 13px;&quot;&gt;&amp;nbsp;&amp;nbsp; &amp;nbsp;&amp;nbsp;&amp;nbsp; &amp;nbsp;&amp;nbsp;&amp;nbsp; &amp;nbsp;&amp;nbsp;&amp;nbsp; &amp;nbsp;}&lt;/font&gt;&lt;br&gt;&lt;font style=&quot;font-size: 13px;&quot;&gt;}&lt;/font&gt;&lt;/div&gt;" style="text;html=1;strokeColor=none;fillColor=none;align=left;verticalAlign=middle;whiteSpace=wrap;rounded=0;" parent="1" vertex="1">
          <mxGeometry x="470" y="-30" width="290" height="120" as="geometry" />
        </mxCell>
        <mxCell id="U8ta5b5KrhjTRB8xtLqo-6" value="" style="endArrow=classic;html=1;rounded=0;" parent="1" edge="1">
          <mxGeometry width="50" height="50" relative="1" as="geometry">
            <mxPoint x="180" y="670" as="sourcePoint" />
            <mxPoint x="640" y="670" as="targetPoint" />
          </mxGeometry>
        </mxCell>
        <mxCell id="U8ta5b5KrhjTRB8xtLqo-8" value="&lt;font style=&quot;font-size: 13px;&quot;&gt;1. Person A requests a message Person B has posted. The main application server verifies that the Person A and B are indeed friends and if so sends the Person A&#39;s public key, username, password and Person B&#39;s username to the symmetric key API server. &lt;/font&gt;" style="text;html=1;strokeColor=none;fillColor=none;align=center;verticalAlign=middle;whiteSpace=wrap;rounded=0;" parent="1" vertex="1">
          <mxGeometry x="220" y="590" width="380" height="50" as="geometry" />
        </mxCell>
        <mxCell id="U8ta5b5KrhjTRB8xtLqo-11" value="" style="endArrow=classic;html=1;rounded=0;fontColor=#33001A;" parent="1" source="U8ta5b5KrhjTRB8xtLqo-4" edge="1">
          <mxGeometry width="50" height="50" relative="1" as="geometry">
            <mxPoint x="400" y="420" as="sourcePoint" />
            <mxPoint x="690" y="270" as="targetPoint" />
          </mxGeometry>
        </mxCell>
        <mxCell id="U8ta5b5KrhjTRB8xtLqo-12" value="&lt;font style=&quot;font-size: 13px;&quot;&gt;2. Symmetric key API compares Person A&#39;s password with his/her stored hash in DB. It can find this by using Person A&#39;s username. If the hashes don&#39;t match, it drops the request. &lt;br&gt;If they do match it uses Person B&#39;s username to encrypt Person B&#39;s symmetric key with Person A&#39;s public key. &lt;/font&gt;" style="text;html=1;strokeColor=none;fillColor=none;align=center;verticalAlign=middle;whiteSpace=wrap;rounded=0;fontColor=#33001A;" parent="1" vertex="1">
          <mxGeometry x="340" y="390" width="300" height="100" as="geometry" />
        </mxCell>
        <mxCell id="U8ta5b5KrhjTRB8xtLqo-13" value="" style="endArrow=classic;html=1;rounded=0;fontColor=#33001A;exitX=0;exitY=1;exitDx=0;exitDy=0;exitPerimeter=0;entryX=1;entryY=1;entryDx=0;entryDy=0;entryPerimeter=0;" parent="1" source="U8ta5b5KrhjTRB8xtLqo-4" target="U8ta5b5KrhjTRB8xtLqo-3" edge="1">
          <mxGeometry width="50" height="50" relative="1" as="geometry">
            <mxPoint x="400" y="480" as="sourcePoint" />
            <mxPoint x="170" y="730" as="targetPoint" />
          </mxGeometry>
        </mxCell>
        <mxCell id="U8ta5b5KrhjTRB8xtLqo-14" value="&lt;font style=&quot;font-size: 13px;&quot;&gt;3. Person B&#39;s encrypted symmetric key is then returned to the main application server. The server then forwards it to the client application on Person A&#39;s pc. The client app can then use Person A&#39;s private key to decrypt the symmetric key and read all the messages from their friend Person B.&lt;/font&gt;" style="text;html=1;strokeColor=none;fillColor=none;align=center;verticalAlign=middle;whiteSpace=wrap;rounded=0;fontColor=#33001A;" parent="1" vertex="1">
          <mxGeometry x="200" y="770" width="430" height="30" as="geometry" />
        </mxCell>
      </root>
    </mxGraphModel>
  </diagram>
</mxfile>
